<svg width="16" height="21" viewBox="0 0 16 21" fill="none" xmlns="http://www.w3.org/2000/svg">
<path fill-rule="evenodd" clip-rule="evenodd" d="M13.8101 2.86156C12.9236 1.38096 11.0046 0.89936 9.52404 1.78587L2.81303 5.80411C1.33244 6.69062 0.850838 8.60954 1.73735 10.0901C2.22414 10.9031 3.02148 11.4149 3.88861 11.5645C4.09465 11.6 4.25682 11.76 4.29514 11.9656C4.33347 12.1711 4.23985 12.3788 4.06047 12.4862L2.52012 13.4085C1.03953 14.295 0.55793 16.2139 1.44444 17.6945C2.33095 19.1751 4.24987 19.6567 5.73046 18.7702L12.4415 14.752C13.9221 13.8654 14.4037 11.9465 13.5172 10.4659C13.0304 9.65292 12.233 9.14116 11.3659 8.99157C11.1599 8.95603 10.9977 8.79603 10.9594 8.59049C10.921 8.38495 11.0147 8.17727 11.194 8.06987L12.7344 7.14758C14.215 6.26107 14.6966 4.34215 13.8101 2.86156ZM9.01034 0.927906C10.9648 -0.242318 13.4978 0.393413 14.668 2.34785C15.8383 4.30228 15.2025 6.83532 13.2481 8.00554L12.6477 8.36503C13.3416 8.70343 13.9489 9.24036 14.3751 9.95222C15.5453 11.9067 14.9096 14.4397 12.9552 15.6099L6.24417 19.6282C4.28974 20.7984 1.7567 20.1626 0.586476 18.2082C-0.583748 16.2538 0.0519803 13.7207 2.00642 12.5505L2.6068 12.191C1.91295 11.8526 1.30561 11.3157 0.879383 10.6038C-0.29084 8.64941 0.344888 6.11637 2.29932 4.94614L9.01034 0.927906Z" fill="white"/>
<path d="M6.15332 12.4949V8.49487L10.1533 10.4949L6.15332 12.4949Z" fill="white"/>
</svg>
